<svg width="19" height="16" viewBox="0 0 19 16" fill="none" xmlns="http://www.w3.org/2000/svg">
<path fill-rule="evenodd" clip-rule="evenodd" d="M14.8906 5.4051C13.8911 5.4051 12.2252 5.97114 11.7809 7.27739V0H8.87121L7.6738 2.80639e-05C7.69027 0.358352 7.6916 0.69705 7.67757 1.01981C7.20692 0.899009 6.68452 0.833256 6.10822 0.833256H0V15.8333H3.08743V10.4559H4.13137L7.77409 15.8333H11.3946L11.7809 15.8333V10.4995C11.7809 8.67072 13.0692 8.10468 14.1132 8.10468C15.1127 8.10468 16.09 8.84489 16.09 10.4342V15.8333H18.9997V10.26C19.022 7.21208 17.6004 5.4051 14.8906 5.4051ZM8.87121 12.3179V15.8333L11.3946 15.8333L8.87121 12.3179ZM8.87121 9.78538C8.4386 10.0489 7.95764 10.2366 7.44092 10.3253L8.87121 12.3179V9.78538ZM8.87121 4.76378V9.78538C10.2424 8.95022 11.1281 7.35353 11.1281 5.73168C11.1281 4.57963 10.7968 3.43235 10.0842 2.53802C10.3599 1.75042 10.5085 0.896991 10.4725 2.80639e-05L8.87121 0V1.49854C8.518 1.29612 8.12072 1.13356 7.67757 1.01981C7.631 2.09124 7.41522 2.98708 7.02228 3.84233C6.69191 3.63386 6.28217 3.51106 5.79725 3.51106H3.08743V8.01762H5.55292C7.28543 8.01762 8.01842 6.99439 8.01842 5.797C8.01842 5.77305 8.01811 5.74915 8.01749 5.72529C8.31623 5.43518 8.60416 5.11339 8.87121 4.76378ZM8.01749 5.72529C7.99749 4.95707 7.65586 4.24214 7.02228 3.84233C6.73528 4.467 6.35377 5.07001 5.87465 5.70398L7.22957 6.40064C7.49595 6.20058 7.76072 5.97464 8.01749 5.72529ZM8.87121 4.76378V1.49854C9.35749 1.77723 9.76024 2.13149 10.0842 2.53802C9.79642 3.36012 9.37025 4.11049 8.87121 4.76378Z" fill="white"/>
</svg>
