<svg width="21" height="21" viewBox="0 0 21 21" fill="none" xmlns="http://www.w3.org/2000/svg">
<path d="M1.26927 19.7307C0.94288 19.4043 0.913208 18.8936 1.18026 18.5337L1.26927 18.4306L9.19942 10.5L1.26927 2.56944C0.94288 2.24304 0.913208 1.7323 1.18026 1.37239L1.26927 1.26927C1.59566 0.942882 2.10641 0.91321 2.46632 1.18026L2.56944 1.26927L11.1501 9.84992C11.4765 10.1763 11.5061 10.6871 11.2391 11.047L11.1501 11.1501L2.56944 19.7307C2.2104 20.0898 1.6283 20.0898 1.26927 19.7307Z" fill="white"/>
<path d="M19.7307 1.26927C20.0571 1.59566 20.0868 2.10641 19.8197 2.46632L19.7307 2.56944L11.8006 10.5L19.7307 18.4306C20.0571 18.757 20.0868 19.2677 19.8197 19.6276L19.7307 19.7307C19.4043 20.0571 18.8936 20.0868 18.5337 19.8197L18.4306 19.7307L9.84992 11.1501C9.52353 10.8237 9.49385 10.3129 9.7609 9.95303L9.84992 9.84992L18.4306 1.26927C18.7896 0.910242 19.3717 0.910242 19.7307 1.26927Z" fill="white"/>
<path fill-rule="evenodd" clip-rule="evenodd" d="M0.789716 18.2209L0.902761 18.09L8.49233 10.5L0.915718 2.92299C0.915715 2.92299 0.915721 2.92299 0.915718 2.92299C0.41151 2.41877 0.366162 1.63047 0.778715 1.07445L0.789716 1.05962L0.902765 0.928672L0.915718 0.91572C1.41993 0.411504 2.20824 0.36616 2.76426 0.778717L2.77908 0.789717L2.91004 0.902767L10.5 8.49273L18.077 0.91572C18.6313 0.361427 19.53 0.361427 20.0843 0.915719C20.5885 1.41994 20.6338 2.20824 20.2213 2.76426L20.2103 2.77908L20.0972 2.91003L12.5077 10.5L20.0843 18.077C20.5885 18.5812 20.6338 19.3695 20.2213 19.9256L20.2103 19.9404L20.0972 20.0713L20.0843 20.0843C19.5801 20.5885 18.7918 20.6338 18.2357 20.2213L18.2209 20.2103L18.09 20.0972L10.5 12.5073L2.92299 20.0843C2.3687 20.6386 1.47001 20.6386 0.915718 20.0843C0.411502 19.5801 0.366159 18.7918 0.778715 18.2357L0.789716 18.2209ZM10.1464 12.1537L10.5 11.8002L18.4306 19.7307L18.5337 19.8197C18.8936 20.0868 19.4043 20.0571 19.7307 19.7307L19.8197 19.6276C20.0868 19.2677 20.0571 18.757 19.7307 18.4306L11.8006 10.5L11.9148 10.3858C11.9148 10.3858 11.9148 10.3858 11.9148 10.3858M2.46632 1.18026C2.10641 0.91321 1.59566 0.942882 1.26927 1.26927L1.18026 1.37239C0.913208 1.7323 0.94288 2.24304 1.26927 2.56944L9.08527 10.3858C9.08527 10.3858 9.08527 10.3858 9.08527 10.3858L9.19942 10.5L1.26927 18.4306L1.18026 18.5337C0.913208 18.8936 0.94288 19.4043 1.26927 19.7307C1.6283 20.0898 2.2104 20.0898 2.56944 19.7307L10.1464 12.1537M12.1541 10.1465L19.7307 2.56944L19.8197 2.46632C20.0868 2.10641 20.0571 1.59566 19.7307 1.26927C19.3717 0.910242 18.7896 0.910242 18.4306 1.26927L10.8536 8.84628M10.1464 8.84628L2.56944 1.26927L2.46632 1.18026" fill="white"/>
</svg>
