<svg width="23" height="16" viewBox="0 0 23 16" fill="none" xmlns="http://www.w3.org/2000/svg">
<path d="M21.8221 12.2365H1.39354C1.18516 12.2365 0.98531 12.3155 0.83796 12.4561C0.69061 12.5968 0.60783 12.7875 0.60783 12.9865L0.60783 14.4865C0.60783 14.6854 0.69061 14.8761 0.83796 15.0168C0.98531 15.1574 1.18516 15.2365 1.39354 15.2365H21.8221C22.0305 15.2365 22.2303 15.1574 22.3777 15.0168C22.525 14.8761 22.6078 14.6854 22.6078 14.4865V12.9865C22.6078 12.7875 22.525 12.5968 22.3777 12.4561C22.2303 12.3155 22.0305 12.2365 21.8221 12.2365ZM21.8221 6.23645H1.39354C1.18516 6.23645 0.98531 6.31547 0.83796 6.45612C0.69061 6.59677 0.60783 6.78754 0.60783 6.98645L0.60783 8.48645C0.60783 8.68536 0.69061 8.87613 0.83796 9.01678C0.98531 9.15743 1.18516 9.23645 1.39354 9.23645H21.8221C22.0305 9.23645 22.2303 9.15743 22.3777 9.01678C22.525 8.87613 22.6078 8.68536 22.6078 8.48645V6.98645C22.6078 6.78754 22.525 6.59677 22.3777 6.45612C22.2303 6.31547 22.0305 6.23645 21.8221 6.23645ZM21.8221 0.23645H1.39354C1.18516 0.23645 0.98531 0.315468 0.83796 0.45612C0.69061 0.596772 0.60783 0.787538 0.60783 0.98645L0.60783 2.48645C0.60783 2.68536 0.69061 2.87613 0.83796 3.01678C0.98531 3.15743 1.18516 3.23645 1.39354 3.23645H21.8221C22.0305 3.23645 22.2303 3.15743 22.3777 3.01678C22.525 2.87613 22.6078 2.68536 22.6078 2.48645V0.98645C22.6078 0.787538 22.525 0.596772 22.3777 0.45612C22.2303 0.315468 22.0305 0.23645 21.8221 0.23645Z" fill="white"/>
</svg>
